<?xml version="1.0" encoding="UTF-8" standalone="no"?>
<!DOCTYPE svg PUBLIC "-//W3C//DTD SVG 1.1//EN" "http://www.w3.org/Graphics/SVG/1.1/DTD/svg11.dtd">
<svg width="100%" height="100%" viewBox="0 0 18 18" version="1.1" xmlns="http://www.w3.org/2000/svg" xmlns:xlink="http://www.w3.org/1999/xlink" xml:space="preserve" xmlns:serif="http://www.serif.com/" style="fill-rule:evenodd;clip-rule:evenodd;stroke-linejoin:round;stroke-miterlimit:1.5;">
    <g id="Battery">
        <g id="Battery-Base" serif:id="Battery Base" transform="matrix(2.03224,0,0,1.67618,-14.0603,0.189741)">
            <rect x="9" y="1.625" width="4.701" height="7.987" style="fill:none;stroke:white;stroke-width:0.45px;"/>
        </g>
        <g id="Discord-Logo" serif:id="Discord Logo" transform="matrix(0.0233504,0,0,0.0233504,4.32846,4.40612)">
            <path d="M161.398,104.262C160.299,104.545 158.32,104.895 157,105.041C155.68,105.187 154.15,105.532 153.6,105.807C153.05,106.081 151.61,106.438 150.4,106.6C149.19,106.762 147.733,107.133 147.163,107.425C146.592,107.717 145.152,108.082 143.963,108.236C142.773,108.39 141.445,108.759 141.011,109.058C140.577,109.356 139.764,109.6 139.205,109.6C138.646,109.6 137.516,109.96 136.696,110.4C135.875,110.84 134.797,111.206 134.301,111.214C133.806,111.221 132.68,111.575 131.8,112C130.92,112.425 129.837,112.779 129.394,112.786C128.951,112.794 127.916,113.16 127.096,113.6C126.275,114.04 125.377,114.4 125.101,114.399C124.826,114.398 123.88,114.749 123,115.179C122.12,115.609 120.32,116.351 119,116.827C117.68,117.304 116.33,117.856 116,118.055C115.67,118.253 114.815,118.685 114.1,119.013C113.385,119.342 112.8,119.777 112.8,119.981C112.8,120.184 111.494,122.297 109.898,124.675C108.302,127.054 106.77,129.45 106.494,130C106.218,130.55 105.198,132.26 104.228,133.8C103.259,135.34 101.454,138.58 100.218,141C98.982,143.42 97.818,145.67 97.631,146C97.148,146.854 94.505,152.408 94.014,153.6C93.787,154.15 93.434,154.87 93.229,155.2C92.689,156.069 91.322,159.234 90.983,160.4C90.823,160.95 90.446,161.755 90.146,162.189C89.846,162.623 89.6,163.26 89.6,163.604C89.6,163.949 89.242,164.934 88.804,165.793C88.366,166.652 87.897,167.944 87.762,168.663C87.627,169.383 87.265,170.18 86.958,170.435C86.651,170.69 86.4,171.374 86.4,171.955C86.4,172.536 86.04,173.684 85.6,174.504C85.16,175.325 84.796,176.493 84.791,177.099C84.786,177.704 84.426,178.985 83.991,179.944C83.556,180.903 83.2,182.111 83.2,182.629C83.2,183.147 82.84,184.484 82.4,185.6C81.96,186.716 81.599,188.118 81.598,188.715C81.596,189.312 81.335,190.298 81.018,190.906C80.701,191.515 80.252,193.371 80.021,195.032C79.79,196.692 79.441,198.354 79.245,198.725C79.049,199.096 78.686,201.274 78.439,203.566C78.191,205.857 77.813,207.944 77.597,208.203C77.382,208.463 77.024,211.539 76.803,215.038C76.581,218.537 76.195,222.21 75.945,223.2C75.324,225.656 75.279,249.287 75.891,251.2C76.137,251.97 76.457,253.984 76.601,255.675C76.907,259.262 77.048,259.461 81.2,262.182C82.85,263.264 84.38,264.342 84.6,264.579C84.82,264.816 85.45,265.24 86,265.521C87.781,266.431 88.779,267.057 89.529,267.736C89.933,268.101 90.415,268.4 90.6,268.4C90.785,268.4 91.221,268.649 91.569,268.953C91.916,269.257 93.325,270.085 94.7,270.793C96.075,271.502 97.2,272.239 97.2,272.433C97.2,272.626 97.695,272.906 98.3,273.053C98.905,273.201 99.829,273.655 100.354,274.061C100.879,274.467 101.622,274.8 102.005,274.8C102.388,274.8 102.917,275.058 103.179,275.374C103.441,275.69 104.181,276.064 104.823,276.205C105.465,276.346 106.098,276.635 106.229,276.848C106.361,277.06 107.173,277.516 108.034,277.86C108.895,278.205 109.6,278.627 109.6,278.799C109.6,278.971 110.212,279.226 110.96,279.366C111.708,279.506 112.54,279.886 112.809,280.211C113.078,280.535 113.489,280.8 113.723,280.8C113.956,280.8 114.879,281.143 115.774,281.562C118.824,282.991 121.301,284 121.757,284C122.007,284 122.884,284.36 123.704,284.8C124.525,285.24 125.403,285.6 125.655,285.6C125.906,285.6 126.852,285.936 127.756,286.347C128.66,286.757 130.75,287.502 132.4,288.001C134.05,288.501 136.051,289.171 136.847,289.491C138.065,289.982 138.432,289.989 139.171,289.537C140.086,288.977 147.416,278.306 148.317,276.222C148.602,275.564 148.964,274.93 149.121,274.813C149.748,274.348 151.657,270.016 151.411,269.618C151.094,269.106 145.683,266.533 144.116,266.151C143.502,266.001 142.571,265.545 142.046,265.139C141.521,264.733 140.767,264.4 140.37,264.4C139.972,264.4 139.536,264.22 139.4,264.001C139.265,263.781 137.674,262.905 135.865,262.053C131.644,260.067 131.059,259.086 133,257.256C133.732,256.565 134.47,256 134.64,256C134.81,256 135.348,255.625 135.836,255.166L136.724,254.332L138.262,255.129C140.986,256.539 143.473,257.6 144.055,257.6C144.367,257.6 144.986,257.855 145.431,258.167C145.877,258.479 146.952,258.862 147.82,259.018C148.689,259.174 149.684,259.548 150.03,259.85C150.377,260.151 151.5,260.555 152.526,260.747C153.552,260.938 154.637,261.299 154.936,261.547C155.236,261.796 156.363,262.118 157.44,262.263C158.518,262.408 159.76,262.751 160.2,263.025C160.64,263.299 161.99,263.652 163.2,263.809C164.41,263.966 165.85,264.322 166.4,264.6C166.95,264.878 168.39,265.233 169.6,265.388C170.81,265.543 172.7,265.909 173.8,266.201C174.9,266.493 177.443,266.842 179.451,266.977C181.459,267.111 184.339,267.483 185.851,267.804C189.748,268.629 210.004,268.641 213.908,267.819C215.426,267.5 218.363,267.122 220.434,266.979C222.505,266.836 225.059,266.476 226.109,266.178C227.159,265.881 229.139,265.512 230.509,265.359C231.879,265.205 233.36,264.854 233.8,264.578C234.24,264.302 235.586,263.947 236.79,263.788C237.995,263.63 239.345,263.274 239.79,262.998C240.236,262.722 241.467,262.386 242.527,262.252C243.586,262.118 244.841,261.736 245.316,261.404C245.79,261.072 246.546,260.8 246.995,260.8C247.444,260.8 248.478,260.443 249.291,260.007C250.105,259.571 251.494,259.098 252.378,258.957C253.262,258.816 254.19,258.453 254.441,258.15C254.693,257.848 255.392,257.6 255.995,257.6C256.598,257.6 257.55,257.24 258.109,256.8C258.669,256.36 259.378,256 259.687,256C259.995,256 260.596,255.736 261.024,255.413C262.425,254.353 263.694,254.687 265.915,256.7L268.011,258.6L267.234,259.862C266.745,260.657 266.004,261.224 265.229,261.394C264.553,261.542 264,261.826 264,262.024C264,262.222 263.505,262.506 262.9,262.653C262.295,262.801 261.371,263.255 260.846,263.661C260.321,264.067 259.63,264.4 259.309,264.4C258.989,264.4 258.269,264.76 257.709,265.2C257.15,265.64 256.484,266 256.231,266C255.977,266 255.063,266.36 254.2,266.8C253.337,267.24 252.386,267.6 252.087,267.6C251.787,267.6 250.759,268.059 249.8,268.621L248.058,269.642L248.675,271.121C249.015,271.934 249.859,273.5 250.551,274.6C252.319,277.409 252.7,278.039 253.447,279.38C253.808,280.03 254.35,280.808 254.652,281.109C254.953,281.41 255.2,281.886 255.2,282.167C255.2,282.447 255.56,283.002 256,283.4C256.44,283.798 256.8,284.372 256.8,284.675C256.8,284.977 257.063,285.326 257.385,285.45C257.706,285.573 258.08,286.023 258.216,286.45C258.889,288.571 261.299,290.11 262.756,289.35C263.33,289.05 264.16,288.803 264.6,288.8C265.04,288.797 265.928,288.52 266.574,288.183C267.219,287.846 268.389,287.406 269.174,287.205C271.324,286.655 274.681,285.395 275.275,284.916C275.564,284.683 276.43,284.36 277.2,284.197C277.97,284.035 279.268,283.564 280.084,283.151C280.9,282.738 281.823,282.4 282.135,282.4C282.447,282.4 282.926,282.13 283.2,281.8C283.474,281.47 284.009,281.2 284.389,281.2C284.77,281.2 285.927,280.75 286.962,280.2C287.996,279.65 289.103,279.2 289.421,279.2C289.74,279.2 290,279.034 290,278.831C290,278.628 290.675,278.242 291.5,277.973C292.325,277.704 293.09,277.35 293.2,277.187C293.31,277.024 294.03,276.603 294.8,276.253C295.57,275.903 296.47,275.45 296.8,275.247C297.13,275.044 298.57,274.311 300,273.618C301.43,272.926 303.14,272.013 303.8,271.589C304.46,271.166 305.562,270.5 306.248,270.11C308.711,268.709 310.62,267.564 311.8,266.782C312.46,266.344 313.495,265.769 314.1,265.505C314.705,265.241 315.2,264.915 315.2,264.781C315.2,264.647 316.703,263.562 318.54,262.369C322.882,259.549 323.278,258.982 323.683,255.023C324.628,245.776 324.899,237.514 324.478,230.749C323.714,218.454 322.891,209.426 322.44,208.4C322.199,207.85 321.84,205.87 321.642,204C321.249,200.277 320.169,194.489 319.515,192.6C319.287,191.94 318.865,190.23 318.578,188.8C318.291,187.37 317.782,185.48 317.446,184.6C317.11,183.72 316.827,182.586 316.818,182.08C316.808,181.574 316.551,180.674 316.247,180.08C315.943,179.486 315.561,178.194 315.397,177.209C315.233,176.224 314.869,175.054 314.589,174.609C314.308,174.164 313.948,173.17 313.788,172.4C313.628,171.63 313.251,170.645 312.949,170.211C312.647,169.777 312.4,169.054 312.4,168.605C312.4,168.156 312.068,167.161 311.661,166.394C311.255,165.627 310.796,164.483 310.642,163.852C310.487,163.22 310.124,162.467 309.836,162.179C309.547,161.89 309.194,160.922 309.051,160.027C308.908,159.132 308.616,158.4 308.403,158.4C308.19,158.4 307.906,157.905 307.773,157.3C307.406,155.634 299.473,139.97 296.581,135.2C295.18,132.89 293.854,130.605 293.635,130.122C293.416,129.639 292.643,128.37 291.918,127.302C291.193,126.234 290.42,125.073 290.2,124.721C289.98,124.369 289.215,123.244 288.5,122.221C287.785,121.197 287.2,120.179 287.2,119.959C287.2,119.611 284.964,118.476 280.6,116.608C279.94,116.326 278.54,115.713 277.489,115.247C276.438,114.781 275.313,114.4 274.988,114.4C274.663,114.4 273.725,114.04 272.904,113.6C272.084,113.16 271.044,112.8 270.595,112.8C270.146,112.8 269.414,112.545 268.969,112.233C268.523,111.921 267.448,111.541 266.58,111.388C265.711,111.235 264.608,110.865 264.128,110.564C263.649,110.264 262.479,109.903 261.528,109.762C260.578,109.621 259.401,109.257 258.914,108.953C258.427,108.649 257.566,108.4 257.001,108.4C256.437,108.4 254.945,108.055 253.687,107.634C252.429,107.213 250.34,106.675 249.045,106.438C247.75,106.201 246.49,105.843 246.245,105.643C246,105.443 244.54,105.146 243,104.984C241.46,104.822 239.502,104.444 238.65,104.145C235.961,103.2 235.427,103.381 234.257,105.637C233.676,106.757 233.2,107.854 233.2,108.074C233.2,108.294 232.84,108.931 232.4,109.491C231.96,110.05 231.6,110.77 231.6,111.091C231.6,111.411 231.24,112.131 230.8,112.691C230.36,113.25 230,114.016 230,114.392C230,116.498 222.172,116.847 213.344,115.134C210.128,114.511 189.745,114.507 186.579,115.13C184.495,115.54 175.217,116.421 172.491,116.468C171.064,116.492 168.4,112.794 168.4,110.788C168.4,110.534 168.04,109.869 167.6,109.309C167.16,108.75 166.8,108.068 166.8,107.795C166.8,107.522 166.542,107.083 166.226,106.821C165.91,106.559 165.54,105.836 165.403,105.215C165.095,103.811 164.087,103.571 161.398,104.262M164.775,181.887C169.613,183.935 172.91,186.027 174.575,188.106C175.146,188.818 175.833,189.664 176.103,189.987C177.237,191.343 178.406,193.286 178.634,194.194C178.769,194.729 179.131,195.377 179.439,195.633C179.748,195.889 180,196.412 180,196.797C180,197.181 180.36,198.623 180.8,200C181.377,201.807 181.6,203.606 181.6,206.462C181.6,209.395 181.393,211.01 180.8,212.696C180.36,213.948 180,215.373 180,215.863C180,216.352 179.817,216.866 179.594,217.004C179.371,217.142 178.927,217.879 178.608,218.641C178.29,219.404 177.798,220.287 177.515,220.604C177.232,220.921 176.64,221.669 176.2,222.266C174.451,224.64 170.942,227.802 168.836,228.901C163.598,231.634 156.17,232.398 152.2,230.612C148.085,228.76 146.4,227.879 146.4,227.579C146.4,227.4 146.034,227.138 145.586,226.996C144.671,226.705 140.4,222.476 140.4,221.861C140.4,221.642 140.135,221.17 139.812,220.813C138.835,219.733 137.2,216.414 137.2,215.51C137.2,215.044 136.894,214.325 136.52,213.912C135.398,212.672 135.228,201.957 136.292,199.552C136.724,198.573 137.212,197.059 137.375,196.186C137.538,195.314 137.873,194.356 138.12,194.057C138.367,193.759 138.756,193.2 138.984,192.815C140.74,189.856 144.447,185.6 145.267,185.6C145.419,185.6 145.781,185.373 146.071,185.095C149.807,181.524 159.848,179.802 164.775,181.887M247.389,181.855C247.823,182.155 248.453,182.4 248.789,182.4C251.153,182.402 260,189.203 260,191.019C260,191.338 260.167,191.6 260.371,191.6C260.723,191.6 262.797,195.588 262.802,196.275C262.804,196.454 263.111,197.14 263.484,197.8C264.633,199.828 264.74,211.297 263.634,213.726C263.175,214.733 262.8,215.821 262.8,216.145C262.8,216.994 260.827,220.8 260.387,220.8C260.182,220.8 259.909,221.225 259.778,221.744C259.306,223.627 251.51,229.959 249.6,230.011C249.27,230.02 248.28,230.375 247.4,230.8C245.339,231.796 238.436,231.927 236.667,231.004C236.043,230.679 234.803,230.216 233.91,229.976C231.082,229.214 225.014,224.248 222.905,220.969C221.746,219.167 220,215.161 220,214.306C220,213.795 219.691,212.937 219.313,212.397C218.314,210.971 218.314,201.983 219.313,200.12C219.691,199.416 220,198.496 220,198.075C220,196.902 222.193,192.337 223.361,191.078C223.933,190.462 224.676,189.427 225.011,188.778C225.346,188.13 225.777,187.6 225.968,187.6C226.16,187.6 226.74,187.153 227.258,186.607C227.776,186.061 228.425,185.611 228.7,185.607C228.975,185.603 229.2,185.438 229.2,185.24C229.2,184.317 234.935,181.75 238.2,181.211C240.833,180.777 246.392,181.166 247.389,181.855" style="fill:rgb(251,251,252);"/>
        </g>
        <g id="Battery-Top" serif:id="Battery Top" transform="matrix(1,0,0,1.1592,0,1.38059)">
            <rect x="7.022" y="-0" width="3.597" height="1.171" style="fill:white;stroke:white;stroke-width:0.77px;"/>
        </g>
    </g>
</svg>
